<svg width="177" height="47" viewBox="0 0 177 47" fill="none" xmlns="http://www.w3.org/2000/svg">
<g clip-path="url(#clip0_1143_305)">
<path d="M23.5 47C36.4787 47 47 36.4787 47 23.5C47 10.5213 36.4787 0 23.5 0C10.5213 0 0 10.5213 0 23.5C0 36.4787 10.5213 47 23.5 47Z" fill="#14A800"/>
<path fill-rule="evenodd" clip-rule="evenodd" d="M21.2101 12.2925C16.6755 12.3571 13.0154 17.026 13.0154 22.7762C13.0154 28.5264 16.6755 33.1954 21.2101 33.26V12.2925Z" fill="white"/>
<path fill-rule="evenodd" clip-rule="evenodd" d="M31.6835 33.2615V12.2922H29.4803V28.6461L26.2631 22.2903L25.1708 20.1323L24.2599 22.373L20.002 32.8466L21.0224 33.2615H22.2115L25.3898 25.4434L29.3473 33.2615H31.6835Z" fill="white"/>
</g>
<path d="M59.0742 33.5V16.6953H63.9258C70.1211 16.6953 73.2188 19.4258 73.2188 24.8867C73.2188 27.4805 72.3594 29.5664 70.6406 31.1445C68.9219 32.7148 66.6172 33.5 63.7266 33.5H59.0742ZM61.8516 19.0625V31.1445H64.0781C66.0391 31.1445 67.5625 30.6055 68.6484 29.5273C69.7422 28.4492 70.2891 26.9258 70.2891 24.957C70.2891 21.0273 68.2539 19.0625 64.1836 19.0625H61.8516ZM85.207 33.5H82.5703V31.625H82.5234C81.6953 33.0625 80.4805 33.7812 78.8789 33.7812C77.6992 33.7812 76.7734 33.4609 76.1016 32.8203C75.4375 32.1797 75.1055 31.332 75.1055 30.2773C75.1055 28.0117 76.4102 26.6914 79.0195 26.3164L82.582 25.8125C82.582 24.1016 81.7695 23.2461 80.1445 23.2461C78.7148 23.2461 77.4258 23.7383 76.2773 24.7227V22.3438C77.543 21.5938 79.0039 21.2188 80.6602 21.2188C83.6914 21.2188 85.207 22.7109 85.207 25.6953V33.5ZM82.582 27.6055L80.0625 27.957C79.2812 28.0586 78.6914 28.25 78.293 28.5312C77.9023 28.8047 77.707 29.2891 77.707 29.9844C77.707 30.4922 77.8867 30.9102 78.2461 31.2383C78.6133 31.5586 79.1016 31.7188 79.7109 31.7188C80.5391 31.7188 81.2227 31.4297 81.7617 30.8516C82.3086 30.2656 82.582 29.5312 82.582 28.6484V27.6055ZM89.9062 18.9805C89.4609 18.9805 89.0781 18.8359 88.7578 18.5469C88.4453 18.2578 88.2891 17.8906 88.2891 17.4453C88.2891 17 88.4453 16.6289 88.7578 16.332C89.0781 16.0352 89.4609 15.8867 89.9062 15.8867C90.3672 15.8867 90.7578 16.0352 91.0781 16.332C91.3984 16.6289 91.5586 17 91.5586 17.4453C91.5586 17.8672 91.3984 18.2305 91.0781 18.5352C90.7578 18.832 90.3672 18.9805 89.9062 18.9805ZM91.2539 33.5H88.5352V21.5H91.2539V33.5ZM97.5469 33.5H94.8164V15.7344H97.5469V33.5ZM111.492 21.5L106.078 35.4219C104.953 37.9062 103.375 39.1484 101.344 39.1484C100.773 39.1484 100.297 39.0977 99.9141 38.9961V36.7344C100.344 36.875 100.734 36.9453 101.086 36.9453C102.102 36.9453 102.859 36.4453 103.359 35.4453L104.168 33.4766L99.3984 21.5H102.41L105.27 30.2188C105.301 30.3281 105.371 30.6172 105.48 31.0859H105.539C105.578 30.9062 105.648 30.625 105.75 30.2422L108.75 21.5H111.492ZM141.07 16.6953L136.465 33.5H133.312L130.113 21.7461C129.98 21.2461 129.898 20.6992 129.867 20.1055H129.82C129.781 20.6602 129.688 21.1992 129.539 21.7227L126.328 33.5H123.105L118.406 16.6953H121.465L124.512 29C124.637 29.5156 124.715 30.0547 124.746 30.6172H124.805C124.836 30.2188 124.945 29.6797 125.133 29L128.578 16.6953H131.449L134.637 29.0938C134.746 29.5156 134.828 30.0156 134.883 30.5938H134.93C134.953 30.2031 135.043 29.6875 135.199 29.0469L138.188 16.6953H141.07ZM147.809 33.7812C145.957 33.7812 144.477 33.2227 143.367 32.1055C142.266 30.9805 141.715 29.4922 141.715 27.6406C141.715 25.625 142.289 24.0508 143.438 22.918C144.594 21.7852 146.148 21.2188 148.102 21.2188C149.977 21.2188 151.438 21.7695 152.484 22.8711C153.531 23.9727 154.055 25.5 154.055 27.4531C154.055 29.3672 153.488 30.9023 152.355 32.0586C151.23 33.207 149.715 33.7812 147.809 33.7812ZM147.938 23.3867C146.875 23.3867 146.035 23.7578 145.418 24.5C144.801 25.2422 144.492 26.2656 144.492 27.5703C144.492 28.8281 144.805 29.8203 145.43 30.5469C146.055 31.2656 146.891 31.625 147.938 31.625C149.008 31.625 149.828 31.2695 150.398 30.5586C150.977 29.8477 151.266 28.8359 151.266 27.5234C151.266 26.2031 150.977 25.1836 150.398 24.4648C149.828 23.7461 149.008 23.3867 147.938 23.3867ZM163.793 24.0898C163.465 23.832 162.992 23.7031 162.375 23.7031C161.57 23.7031 160.898 24.0664 160.359 24.793C159.82 25.5195 159.551 26.5078 159.551 27.7578V33.5H156.832V21.5H159.551V23.9727H159.598C159.863 23.1289 160.27 22.4727 160.816 22.0039C161.371 21.5273 161.988 21.2891 162.668 21.2891C163.16 21.2891 163.535 21.3633 163.793 21.5117V24.0898ZM176.602 33.5H173.156L168.492 27.7344H168.445V33.5H165.715V15.7344H168.445V26.9961H168.492L172.898 21.5H176.168L171.211 27.2891L176.602 33.5Z" fill="#14A800"/>
<defs>
<clipPath id="clip0_1143_305">
<rect width="47" height="47" fill="white"/>
</clipPath>
</defs>
</svg>
