<svg width="47" height="47" viewBox="0 0 47 47" fill="none" xmlns="http://www.w3.org/2000/svg">
<g clip-path="url(#clip0_1416_328)">
<path d="M23.5 47C36.4787 47 47 36.4787 47 23.5C47 10.5213 36.4787 0 23.5 0C10.5213 0 0 10.5213 0 23.5C0 36.4787 10.5213 47 23.5 47Z" fill="#14A800"/>
<path fill-rule="evenodd" clip-rule="evenodd" d="M21.2101 12.2925C16.6755 12.3571 13.0154 17.026 13.0154 22.7762C13.0154 28.5264 16.6755 33.1954 21.2101 33.26V12.2925Z" fill="white"/>
<path fill-rule="evenodd" clip-rule="evenodd" d="M31.6835 33.2615V12.2922H29.4803V28.6461L26.2631 22.2903L25.1708 20.1323L24.2599 22.373L20.002 32.8466L21.0224 33.2615H22.2115L25.3898 25.4434L29.3473 33.2615H31.6835Z" fill="white"/>
</g>
<defs>
<clipPath id="clip0_1416_328">
<rect width="47" height="47" fill="white"/>
</clipPath>
</defs>
</svg>
